<?xml version="1.0" standalone="no"?>
<svg version="1.1" preserveAspectRatio="xMidYMid meet" viewBox="0 0 24 24" class="ng-element" data-id="72ee78daf345492c9b2ed0a77a39643d" style="fill: rgb(0, 0, 0); width: 24px; height: 24px; pointer-events: all; filter: none;" xmlns="http://www.w3.org/2000/svg"><g><path xmlns:default="http://www.w3.org/2000/svg" id="plus" d="M19.33,11c0-0.55-0.45-1-1-1H14V5.67c0-0.55-0.45-1-1-1h-2c-0.55,0-1,0.45-1,1V10H5.67c-0.55,0-1,0.45-1,1v2  c0,0.55,0.45,1,1,1H10v4.33c0,0.55,0.45,1,1,1h2c0.55,0,1-0.45,1-1V14h4.33c0.55,0,1-0.45,1-1V11L19.33,11z" style="fill: rgb(0, 0, 0);"/></g></svg>